#!OML:ASF H:\Martial Arts Walks\Project 1\Capture day 1\Session 1\male.ASF
:FULLY-SPECIFIED
:DEGREES
691
root -3.24785 13.8006 -1.61821 10.1912 -21.3811 -16.9587
lowerback 6.38445 2.65664 10.5696
upperback -2.04521 4.66823 4.6778
thorax -5.32131 2.01304 -1.47197
lowerneck -3.00374 2.34286 -0.696484
upperneck 6.31737 3.04428 1.93735
head 2.46822 1.55439 0.827674
rclavicle -1.68346e-015 0
rhumerus -50.6349 22.8444 -80.3023
rradius 102.525
rwrist 4.56381
rhand -19.5248 -33.1694
rfingers 7.12502
rthumb 6.79859 -63.0402
lclavicle -1.68346e-015 0
lhumerus -11.6314 -13.8477 83.0625
lradius 99.7337
lwrist 24.593
lhand -29.8498 11.1205
lfingers 7.12502
lthumb -3.17237 41.0767
rfemur 6.38728 -12.0628 21.748
rtibia 46.8173
rfoot -31.9628 -33.5806
rtoes -31.5637
lfemur -70.4321 28.0268 -8.88594
ltibia 78.5612
lfoot -10.9908 -2.96907
ltoes 8.6242
692
root -3.25206 13.7904 -1.60474 10.3103 -21.5462 -17.0469
lowerback 6.36322 2.66139 10.578
upperback -2.02646 4.67176 4.72401
thorax -5.29224 2.01687 -1.42677
lowerneck -3.02019 2.39211 -0.763033
upperneck 6.28632 3.11292 1.95835
head 2.45864 1.5876 0.847579
rclavicle 6.50399e-015 -1.96797e-014
rhumerus -50.6189 22.9979 -80.2214
rradius 102.534
rwrist 4.39107
rhand -19.5763 -33.5099
rfingers 7.12502
rthumb 6.74886 -63.3823
lclavicle 6.50399e-015 -1.96797e-014
lhumerus -11.6121 -13.6245 82.9852
lradius 99.8498
lwrist 24.4443
lhand -29.9378 10.8977
lfingers 7.12502
lthumb -3.2574 40.8526
rfemur 6.26 -12.0359 21.7714
rtibia 46.9186
rfoot -31.2059 -34.2345
rtoes -32.6296
lfemur -70.7266 28.3515 -9.11252
ltibia 78.8061
lfoot -10.9082 -2.45461
ltoes 9.16668
693
root -3.25428 13.7835 -1.59041 10.4036 -21.6551 -17.0741
lowerback 6.33414 2.65214 10.5839
upperback -2.00511 4.65412 4.75058
thorax -5.25637 2.0105 -1.39845
lowerneck -3.00816 2.42953 -0.81525
upperneck 6.22378 3.16818 1.9327
head 2.43438 1.61299 0.84873
rclavicle -4.09807e-014 5.46658e-015
rhumerus -50.5089 23.1638 -80.0669
rradius 102.443
rwrist 3.96016
rhand -19.6849 -33.0344
rfingers 7.12502
rthumb 6.64399 -62.9102
lclavicle -4.09807e-014 5.46658e-015
lhumerus -11.6036 -13.3675 82.909
lradius 99.9717
lwrist 24.2285
lhand -30.015 10.6851
lfingers 7.12502
lthumb -3.33191 40.6389
rfemur 6.19332 -12.0231 21.7318
rtibia 46.9896
rfoot -31.0952 -34.3458
rtoes -33.0668
lfemur -71.032 28.5943 -9.43688
ltibia 79.0397
lfoot -10.8238 -1.86434
ltoes 9.62089
694
root -3.25791 13.7763 -1.5762 10.5245 -21.812 -17.1431
lowerback 6.35754 2.66075 10.5816
upperback -2.01088 4.67093 4.78757
thorax -5.27773 2.01805 -1.3614
lowerneck -3.00123 2.44207 -0.84434
upperneck 6.17723 3.18993 1.88673
head 2.41752 1.62171 0.838832
rclavicle 1.80149e-014 -9.93923e-016
rhumerus -50.3754 23.3635 -79.9158
rradius 102.398
rwrist 3.47282
rhand -19.642 -33.3225
rfingers 7.12502
rthumb 6.68538 -63.197
lclavicle 1.80149e-014 -9.93923e-016
lhumerus -11.6077 -13.156 82.7909
lradius 100.125
lwrist 24.0156
lhand -30.1885 10.4083
lfingers 7.12502
lthumb -3.49953 40.3594
rfemur 6.11287 -11.9229 21.7461
rtibia 47.0552
rfoot -31.1614 -34.3484
rtoes -33.2601
lfemur -71.3574 28.922 -9.7335
ltibia 79.296
lfoot -10.7613 -1.31068
ltoes 10.2252
695
root -3.25881 13.7677 -1.56212 10.6285 -21.9005 -17.2005
lowerback 6.38602 2.62705 10.6085
upperback -2.00667 4.63361 4.82678
thorax -5.29478 1.99839 -1.33306
lowerneck -2.99842 2.48065 -0.884089
upperneck 6.13765 3.24886 1.81056
head 2.40347 1.64785 0.822383
rclavicle -1.4064e-014 -8.84592e-014
rhumerus -50.0664 23.6494 -79.7128
rradius 102.285
rwrist 2.80217
rhand -19.4906 -33.4669
rfingers 7.12502
rthumb 6.83155 -63.3367
lclavicle -1.4064e-014 -8.84592e-014
lhumerus -11.6414 -12.8573 82.6218
lradius 100.324
lwrist 23.8034
lhand -30.2911 10.2479
lfingers 7.12502
lthumb -3.59862 40.1973
rfemur 6.0448 -11.8872 21.7565
rtibia 47.1078
rfoot -31.0668 -34.4809
rtoes -33.474
lfemur -71.6826 29.151 -10.0225
ltibia 79.5448
lfoot -10.6885 -0.795716
ltoes 10.8887
696
root -3.26029 13.759 -1.55014 10.7187 -22.0067 -17.2361
lowerback 6.50706 2.58034 10.5509
upperback -2.0234 4.58861 4.86676
thorax -5.39376 1.97356 -1.26303
lowerneck -3.01478 2.55096 -0.88887
upperneck 6.1017 3.34818 1.73721
head 2.39408 1.69507 0.802426
rclavicle 9.98893e-015 -2.62396e-014
rhumerus -49.6624 23.9775 -79.4974
rradius 102.081
rwrist 1.92937
rhand -19.508 -32.9892
rfingers 7.12502
rthumb 6.81476 -62.8595
lclavicle 9.98893e-015 -2.62396e-014
lhumerus -11.7575 -12.4903 82.4188
lradius 100.585
lwrist 23.6718
lhand -30.4394 10.0958
lfingers 7.12502
lthumb -3.74174 40.0427
rfemur 5.968 -11.8412 21.7468
rtibia 47.1711
rfoot -30.9751 -34.6058
rtoes -33.7108
lfemur -71.9784 29.3801 -10.2934
ltibia 79.7888
lfoot -10.6364 -0.325554
ltoes 11.3292
697
root -3.2611 13.751 -1.5353 10.8257 -22.1373 -17.2843
lowerback 6.59983 2.5569 10.5198
upperback -2.02968 4.57088 4.8997
thorax -5.46029 1.96294 -1.21527
lowerneck -2.99709 2.61837 -0.930709
upperneck 6.01049 3.44392 1.69599
head 2.35916 1.74053 0.797367
rclavicle -3.30045e-014 2.61402e-014
rhumerus -49.0845 24.2945 -79.2139
rradius 101.89
rwrist 1.09848
rhand -19.293 -32.9342
rfingers 7.12502
rthumb 7.02234 -62.7977
lclavicle -3.30045e-014 2.61402e-014
lhumerus -11.8086 -12.0835 82.1534
lradius 100.808
lwrist 23.3285
lhand -30.4132 9.98707
lfingers 7.12502
lthumb -3.71648 39.9344
rfemur 5.89153 -11.7474 21.7397
rtibia 47.225
rfoot -30.9135 -34.7058
rtoes -33.7901
lfemur -72.2548 29.6224 -10.5115
ltibia 80.039
lfoot -10.6343 0.061186
ltoes 11.3807
698
root -3.26099 13.742 -1.52008 10.9202 -22.2856 -17.2823
lowerback 6.75545 2.55022 10.4524
upperback -2.07683 4.58482 4.89932
thorax -5.60327 1.96418 -1.18992
lowerneck -2.90476 2.66251 -0.991969
upperneck 5.88423 3.50685 1.69403
head 2.29861 1.77018 0.805054
rclavicle 1.83876e-014 6.85807e-015
rhumerus -48.4299 24.5564 -78.9125
rradius 101.659
rwrist 0.507954
rhand -19.0615 -32.9002
rfingers 7.12502
rthumb 7.24583 -62.7561
lclavicle 1.83876e-014 6.85807e-015
lhumerus -11.9035 -11.7872 81.8803
lradius 101.071
lwrist 23.2729
lhand -30.5714 9.81914
lfingers 7.12502
lthumb -3.86927 39.7638
rfemur 5.80147 -11.6544 21.6634
rtibia 47.2933
rfoot -30.8271 -34.8096
rtoes -33.8998
lfemur -72.5 29.8317 -10.7351
ltibia 80.2868
lfoot -10.6803 0.426901
ltoes 11.3872
699
root -3.25912 13.7327 -1.50481 10.9917 -22.4331 -17.2914
lowerback 6.96059 2.53298 10.3834
upperback -2.10494 4.59013 4.90848
thorax -5.75608 1.9614 -1.15516
lowerneck -2.8937 2.73409 -1.04956
upperneck 5.80806 3.60655 1.68794
head 2.26907 1.8184 0.814137
rclavicle -1.84497e-015 1.49089e-015
rhumerus -47.5914 24.868 -78.5785
rradius 101.381
rwrist 0.26226
rhand -19.0511 -32.4066
rfingers 7.12502
rthumb 7.2558 -62.2622
lclavicle -1.84497e-015 1.49089e-015
lhumerus -12.033 -11.4652 81.5775
lradius 101.41
lwrist 23.3317
lhand -30.8026 9.59704
lfingers 7.12502
lthumb -4.09254 39.5375
rfemur 5.73672 -11.5399 21.5988
rtibia 47.3555
rfoot -30.708 -34.9413
rtoes -34.0119
lfemur -72.7084 30.0238 -10.9014
ltibia 80.5519
lfoot -10.6945 0.721686
ltoes 11.2536
700
root -3.25653 13.7258 -1.48886 11.077 -22.6231 -17.2287
lowerback 7.09842 2.50688 10.2355
upperback -2.0704 4.55728 4.87778
thorax -5.80818 1.9486 -1.11085
lowerneck -3.01051 2.81962 -1.02887
upperneck 5.68884 3.72541 1.628
head 2.2506 1.87684 0.7953
rclavicle -7.72278e-014 -2.71341e-014
rhumerus -46.4542 25.2512 -78.2387
rradius 101.1
rwrist 0.604696
rhand -19.2603 -32.2295
rfingers 7.12502
rthumb 7.05391 -62.092
lclavicle -7.72278e-014 -2.71341e-014
lhumerus -12.1166 -11.0607 81.1244
lradius 101.872
lwrist 23.3605
lhand -30.4957 10.1358
lfingers 7.12502
lthumb -3.79613 40.0818
rfemur 5.61851 -11.3923 21.4577
rtibia 47.4273
rfoot -30.6668 -34.9807
rtoes -34.0909
lfemur -72.9333 30.2237 -11.1507
ltibia 80.7992
lfoot -10.6529 1.00109
ltoes 10.912
701
root -3.25324 13.7163 -1.46905 11.1531 -22.8024 -17.1465
lowerback 7.26709 2.53153 10.1229
upperback -2.08319 4.60339 4.8258
thorax -5.91755 1.96919 -1.11856
lowerneck -2.95955 2.85624 -1.07084
upperneck 5.47068 3.78026 1.58901
head 2.16865 1.90231 0.786893
rclavicle 1.51573e-015 -3.27001e-014
rhumerus -45.3628 25.5236 -77.8335
rradius 100.811
rwrist 1.62046
rhand -19.5695 -31.5716
rfingers 7.12502
rthumb 6.75539 -61.4438
lclavicle 1.51573e-015 -3.27001e-014
lhumerus -12.2191 -10.7802 80.6954
lradius 102.243
lwrist 23.2501
lhand -30.4981 10.1017
lfingers 7.12502
lthumb -3.79843 40.0476
rfemur 5.52519 -11.2911 21.2629
rtibia 47.483
rfoot -30.3051 -35.2549
rtoes -34.4767
lfemur -73.1869 30.423 -11.4469
ltibia 81.0817
lfoot -10.6226 1.30419
ltoes 10.3594
702
root -3.24843 13.7086 -1.44936 11.2468 -22.9446 -17.1015
lowerback 7.47201 2.53516 10.0212
upperback -2.09227 4.62847 4.80426
thorax -6.04773 1.97868 -1.10001
lowerneck -2.94952 2.90918 -1.12425
upperneck 5.25852 3.8592 1.51994
head 2.09633 1.939 0.772473
rclavicle -9.37767e-014 -4.73108e-014
rhumerus -44.1287 25.8735 -77.4147
rradius 100.542
rwrist 3.10188
rhand -20.0487 -30.8116
rfingers 7.12502
rthumb 6.29275 -60.6981
lclavicle -9.37767e-014 -4.73108e-014
lhumerus -12.4448 -10.3654 80.3068
lradius 102.642
lwrist 23.1773
lhand -30.5613 9.91266
lfingers 7.12502
lthumb -3.85946 39.8575
rfemur 5.43804 -11.1837 21.1293
rtibia 47.5145
rfoot -30.1909 -35.3137
rtoes -34.6387
lfemur -73.4863 30.5771 -11.7326
ltibia 81.355
lfoot -10.5553 1.69076
ltoes 10.0132
703
root -3.2435 13.7026 -1.42403 11.3863 -23.1376 -17.0481
lowerback 7.62362 2.59739 9.92912
upperback -2.09937 4.72237 4.75164
thorax -6.13577 2.02311 -1.12413
lowerneck -2.95375 2.91846 -1.16328
upperneck 4.99866 3.87971 1.44142
head 2.01253 1.94693 0.750723
rclavicle 7.48486e-014 1.87852e-014
rhumerus -42.7789 26.1699 -76.9748
rradius 100.297
rwrist 4.78049
rhand -20.4485 -30.2616
rfingers 7.12502
rthumb 5.9068 -60.1593
lclavicle 7.48486e-014 1.87852e-014
lhumerus -12.6095 -10.0707 79.8158
lradius 103.034
lwrist 23.1618
lhand -30.6706 10.1475
lfingers 7.12502
lthumb -3.96503 40.0903
rfemur 5.32535 -11.0329 20.9689
rtibia 47.5134
rfoot -30.049 -35.3756
rtoes -34.7925
lfemur -73.8513 30.7804 -12.1073
ltibia 81.6433
lfoot -10.4479 2.21801
ltoes 9.50064
